#!OML:ASF C:\ViconDB\ViconDB\414\Spring2016\041811\Spring2016.ASF
:FULLY-SPECIFIED
:DEGREES
196
root 10.5266 17.5298 -0.140677 -180.97 -16.2953 -178.519
lowerback -2.14635 -2.06857 3.53414
upperback 0.844048 -2.93549 1.4666
thorax 1.97084 -1.44772 -0.582172
lowerneck -11.7783 4.6334 -6.56231
upperneck 27.0847 4.60589 7.75219
head 10.1509 1.80453 4.32802
rclavicle -9.90817e-016 -3.69739e-014
rhumerus -85.2533 26.6012 -110.987
rradius 95.0896
rwrist 36.4707
rhand -43.2786 0.249609
rfingers 7.12502
rthumb -16.1266 -29.0994
lclavicle -9.90817e-016 -3.69739e-014
lhumerus -93.5192 -42.6622 121.911
lradius 80.8791
lwrist -25.1965
lhand -46.7516 1.53143
lfingers 7.12502
lthumb -19.4684 30.5768
rfemur 178.016 37.0916 -154.516
rtibia 35.2657
rfoot -24.0166 -56.5597
rtoes -14.4862
lfemur 9.7767 -1.37042 -17.1343
ltibia 32.9188
lfoot -14.1894 -7.76087
ltoes -24.8105
197
root 10.547 17.5544 -0.301083 -181.207 -16.1157 -178.064
lowerback -2.2523 -1.90839 3.5916
upperback 0.829178 -2.7402 1.65884
thorax 2.029 -1.3533 -0.4146
lowerneck -11.6732 4.6076 -6.59256
upperneck 27.3515 4.45161 7.97591
head 10.2307 1.73153 4.40261
rclavicle 2.19999e-014 3.18055e-015
rhumerus -85.5381 26.8546 -110.986
rradius 95.1891
rwrist 36.1126
rhand -43.1691 0.2463
rfingers 7.12502
rthumb -16.0212 -29.1113
lclavicle 2.19999e-014 3.18055e-015
lhumerus -92.9971 -42.5841 121.808
lradius 80.7042
lwrist -25.2515
lhand -46.7744 1.5184
lfingers 7.12502
lthumb -19.4903 30.5615
rfemur 177.392 38.7374 -153.712
rtibia 35.3268
rfoot -25.7995 -56.5416
rtoes -12.0901
lfemur 8.36956 -0.470261 -15.9681
ltibia 35.9155
lfoot -11.9789 -8.26921
ltoes -25.548
198
root 10.5701 17.5848 -0.458473 -181.361 -15.8844 -177.695
lowerback -2.31375 -1.78163 3.63113
upperback 0.755966 -2.57849 1.75064
thorax 1.99611 -1.27544 -0.337551
lowerneck -11.5885 4.64858 -6.28179
upperneck 27.6621 4.35774 8.00852
head 10.3436 1.69636 4.35953
rclavicle -3.16192e-015 2.14687e-014
rhumerus -85.8757 27.268 -111.28
rradius 95.1572
rwrist 35.7741
rhand -43.0927 0.266272
rfingers 7.12502
rthumb -15.9477 -29.0972
lclavicle -3.16192e-015 2.14687e-014
lhumerus -92.3925 -42.3938 121.374
lradius 80.3884
lwrist -25.9508
lhand -46.8745 1.49121
lfingers 7.12502
lthumb -19.5866 30.5246
rfemur 176.908 40.4423 -152.936
rtibia 35.3377
rfoot -27.9792 -56.5315
rtoes -10.0572
lfemur 6.6975 0.528715 -14.8959
ltibia 39.0439
lfoot -9.31506 -8.4515
ltoes -25.0365
199
root 10.5998 17.6079 -0.606775 -181.572 -15.6913 -177.266
lowerback -2.26055 -1.64129 3.68004
upperback 0.729602 -2.3945 1.8292
thorax 1.94646 -1.18617 -0.275363
lowerneck -11.5097 4.59266 -6.2837
upperneck 27.9063 4.09141 8.43239
head 10.4253 1.59789 4.49019
rclavicle -7.3892e-014 5.76476e-014
rhumerus -86.1948 27.7687 -111.612
rradius 95.1965
rwrist 35.3846
rhand -42.783 0.240632
rfingers 7.12502
rthumb -15.6494 -29.1464
lclavicle -7.3892e-014 5.76476e-014
lhumerus -91.9996 -42.4824 121.166
lradius 80.2804
lwrist -26.3248
lhand -46.8648 1.6033
lfingers 7.12502
lthumb -19.5773 30.6376
rfemur 176.4 41.9435 -152.211
rtibia 35.3235
rfoot -30.2162 -56.627
rtoes -9.40208
lfemur 4.95649 1.33856 -13.7547
ltibia 42.273
lfoot -6.53393 -8.6012
ltoes -23.409
200
root 10.6332 17.6288 -0.751007 -181.696 -15.5215 -176.882
lowerback -2.25599 -1.51274 3.59991
upperback 0.690453 -2.22588 1.95011
thorax 1.91671 -1.1065 -0.100053
lowerneck -11.4217 4.54849 -6.13946
upperneck 28.0893 3.89693 8.58088
head 10.4918 1.52116 4.50194
rclavicle -6.78353e-015 1.86858e-014
rhumerus -86.2836 28.1201 -111.736
rradius 94.9891
rwrist 35.1879
rhand -42.6226 0.466967
rfingers 7.12502
rthumb -15.4949 -28.9321
lclavicle -6.78353e-015 1.86858e-014
lhumerus -91.6523 -42.5246 120.981
lradius 80.3049
lwrist -26.6723
lhand -46.8145 1.76218
lfingers 7.12502
lthumb -19.529 30.8014
rfemur 176.019 43.4703 -151.453
rtibia 35.2857
rfoot -32.3411 -56.6586
rtoes -7.8756
lfemur 3.0521 2.07522 -12.6762
ltibia 45.5821
lfoot -3.87519 -8.62845
ltoes -21.342
201
root 10.671 17.6504 -0.888072 -181.766 -15.4375 -176.444
lowerback -2.22278 -1.43162 3.68417
upperback 0.592122 -2.11517 1.95242
thorax 1.7971 -1.05312 -0.138068
lowerneck -11.2645 4.55244 -5.98223
upperneck 28.2322 3.65549 9.0746
head 10.5231 1.4604 4.62706
rclavicle -3.28616e-015 8.34896e-015
rhumerus -86.4759 28.5184 -112.164
rradius 94.8211
rwrist 35.0078
rhand -42.5253 0.278701
rfingers 7.12502
rthumb -15.4012 -29.1276
lclavicle -3.28616e-015 8.34896e-015
lhumerus -91.5029 -42.6224 120.791
lradius 80.3303
lwrist -26.7843
lhand -46.7703 1.69328
lfingers 7.12502
lthumb -19.4865 30.7368
rfemur 175.759 45.0288 -150.593
rtibia 35.2554
rfoot -34.6913 -56.4045
rtoes -6.44206
lfemur 0.983267 2.736 -11.5507
ltibia 48.9059
lfoot -1.39827 -8.57316
ltoes -19.044
202
root 10.7101 17.6667 -1.01462 -181.901 -15.4297 -175.968
lowerback -2.02342 -1.33833 3.56986
upperback 0.505257 -1.9846 2.1434
thorax 1.61034 -0.996922 0.132635
lowerneck -11.1527 4.49672 -5.85468
upperneck 28.3229 3.42704 9.32839
head 10.5513 1.38308 4.67224
rclavicle 1.12313e-014 -3.37934e-014
rhumerus -86.6326 28.9865 -112.206
rradius 94.5785
rwrist 35.1141
rhand -42.57 0.169194
rfingers 7.12502
rthumb -15.4443 -29.2338
lclavicle 1.12313e-014 -3.37934e-014
lhumerus -91.1863 -42.6792 120.838
lradius 80.273
lwrist -27.2685
lhand -46.532 1.81549
lfingers 7.12502
lthumb -19.2573 30.882
rfemur 175.439 46.4395 -149.824
rtibia 35.2029
rfoot -36.7822 -56.549
rtoes -6.33606
lfemur -1.16224 3.17268 -10.4438
ltibia 52.2001
lfoot 0.854344 -8.29878
ltoes -16.0711
203
root 10.7412 17.6796 -1.13724 -182.026 -15.3646 -175.499
lowerback -1.85286 -1.25356 3.62363
upperback 0.46406 -1.87115 2.27443
thorax 1.47788 -0.945579 0.245535
lowerneck -11.1176 4.46496 -5.67476
upperneck 28.3884 3.25231 9.52497
head 10.5844 1.33493 4.69537
rclavicle 4.80003e-014 -4.17448e-014
rhumerus -86.9191 29.5906 -112.564
rradius 94.5502
rwrist 34.2962
rhand -42.4028 0.0616847
rfingers 7.12502
rthumb -15.2831 -29.3537
lclavicle 4.80003e-014 -4.17448e-014
lhumerus -90.838 -42.6972 120.774
lradius 80.1879
lwrist -27.7787
lhand -46.3452 1.86126
lfingers 7.12502
lthumb -19.0777 30.9456
rfemur 175.168 48.0328 -149.011
rtibia 35.1608
rfoot -38.9482 -56.5639
rtoes -5.05647
lfemur -3.30401 3.59548 -9.46345
ltibia 55.357
lfoot 2.12802 -7.96628
ltoes -13.8716
204
root 10.7719 17.6939 -1.25533 -182.174 -15.4041 -174.93
lowerback -1.65249 -1.22083 3.82976
upperback 0.412308 -1.82554 2.34505
thorax 1.3096 -0.926581 0.210206
lowerneck -10.9186 4.4473 -5.3317
upperneck 28.2824 3.06928 9.71267
head 10.527 1.30043 4.67234
rclavicle 1.42876e-016 -4.17448e-015
rhumerus -87.0677 30.102 -112.911
rradius 94.4357
rwrist 34.1106
rhand -42.2089 0.0229026
rfingers 7.12502
rthumb -15.0964 -29.4066
lclavicle 1.42876e-016 -4.17448e-015
lhumerus -90.785 -42.8445 120.806
lradius 80.3413
lwrist -27.8877
lhand -46.2087 1.62887
lfingers 7.12502
lthumb -18.9464 30.7261
rfemur 174.928 49.5456 -148.148
rtibia 35.0951
rfoot -40.8044 -56.5028
rtoes -3.6925
lfemur -5.53877 3.90177 -8.42761
ltibia 58.309
lfoot 1.82299 -7.58772
ltoes -13.2182
205
root 10.8057 17.7061 -1.37516 -182.369 -15.4486 -174.452
lowerback -1.46534 -1.1573 3.81962
upperback 0.452615 -1.74036 2.47658
thorax 1.25266 -0.888213 0.356805
lowerneck -10.8175 4.37552 -5.10348
upperneck 28.144 2.88084 9.83301
head 10.4768 1.25189 4.64707
rclavicle 4.52111e-014 6.16232e-015
rhumerus -87.1981 30.6477 -112.96
rradius 94.3312
rwrist 34.2001
rhand -42.1112 0.221474
rfingers 7.12502
rthumb -15.0023 -29.2151
lclavicle 4.52111e-014 6.16232e-015
lhumerus -90.5596 -43.0913 120.899
lradius 80.2573
lwrist -28.3022
lhand -46.3031 1.92201
lfingers 7.12502
lthumb -19.0372 31.0104
rfemur 174.594 51.302 -147.384
rtibia 35.0438
rfoot -42.9581 -56.3123
rtoes -2.10854
lfemur -7.70873 4.1554 -7.56625
ltibia 60.94
lfoot 0.602911 -7.04534
ltoes -13.2495
206
root 10.8381 17.7126 -1.4914 -182.571 -15.627 -173.984
lowerback -1.19817 -1.12709 3.90991
upperback 0.473071 -1.69186 2.53505
thorax 1.1242 -0.867043 0.373608
lowerneck -10.7414 4.28492 -5.00374
upperneck 28.0095 2.61156 10.2235
head 10.4305 1.17998 4.73475
rclavicle 3.25261e-014 1.61016e-014
rhumerus -87.3765 31.1011 -113.272
rradius 94.135
rwrist 34.4782
rhand -42.3842 -0.324633
rfingers 7.12502
rthumb -15.2653 -29.7413
lclavicle 3.25261e-014 1.61016e-014
lhumerus -90.4973 -43.3561 121.068
lradius 80.2604
lwrist -28.3155
lhand -46.3136 1.3968
lfingers 7.12502
lthumb -19.0473 30.4841
rfemur 174.16 52.7936 -146.837
rtibia 34.9978
rfoot -44.2814 -56.339
rtoes -0.170879
lfemur -9.86895 4.13189 -6.82353
ltibia 63.2376
lfoot -0.701191 -6.17811
ltoes -13.4218
207
root 10.8723 17.7257 -1.60399 -182.802 -15.7972 -173.651
lowerback -0.862824 -1.106 3.81008
upperback 0.541556 -1.64675 2.56446
thorax 1.01087 -0.846843 0.467103
lowerneck -10.6794 4.20058 -4.84461
upperneck 27.845 2.35477 10.5794
head 10.3785 1.11713 4.80012
rclavicle -7.60359e-014 1.5704e-014
rhumerus -87.553 31.4961 -113.681
rradius 94.0399
rwrist 34.2568
rhand -42.4762 -0.894207
rfingers 7.12502
rthumb -15.3538 -30.3042
lclavicle -7.60359e-014 1.5704e-014
lhumerus -90.4767 -43.6835 121.338
lradius 80.121
lwrist -29.2085
lhand -46.4907 2.10174
lfingers 7.12502
lthumb -19.2176 31.1722
rfemur 173.619 54.1329 -146.57
rtibia 34.9829
rfoot -45.9563 -56.1955
rtoes -0.168869
lfemur -11.9127 4.03291 -6.29124
ltibia 65.1148
lfoot -1.78587 -4.98172
ltoes -13.1887
208
root 10.9045 17.7332 -1.71551 -182.937 -15.9894 -173.415
lowerback -0.601643 -1.08334 3.58321
upperback 0.608772 -1.60367 2.62368
thorax 0.941774 -0.82817 0.659966
lowerneck -10.6826 4.1096 -4.74999
upperneck 27.695 2.13928 10.8492
head 10.3421 1.06077 4.85294
rclavicle -2.56828e-015 -1.22253e-014
rhumerus -87.6131 31.8954 -113.838
rradius 93.8342
rwrist 34.336
rhand -42.4094 -0.465138
rfingers 7.12502
rthumb -15.2896 -29.88
lclavicle -2.56828e-015 -1.22253e-014
lhumerus -90.2094 -43.8826 121.518
lradius 79.882
lwrist -29.3378
lhand -46.6732 1.81971
lfingers 7.12502
lthumb -19.3931 30.8726
rfemur 173.198 55.6496 -146.242
rtibia 34.9962
rfoot -47.2496 -55.7839
rtoes 1.33208
lfemur -13.9863 3.82262 -5.9877
ltibia 66.6168
lfoot -2.86923 -3.58787
ltoes -13.3407
